{
  "accessors": [
    {
      "bufferView": 2,
      "componentType": 5126,
      "count": 10867,
      "max": [
        202.0185089111328,
        111.96160888671875,
        248.2774658203125
      ],
      "min": [
        -152.07366943359375,
        -109.4821548461914,
        6.912125110626221
      ],
      "type": "VEC3"
    },
    {
      "bufferView": 2,
      "byteOffset": 130404,
      "componentType": 5126,
      "count": 10867,
      "max": [
        1.0,
        1.0,
        1.0
      ],
      "min": [
        -1.0,
        -1.0,
        -1.0
      ],
      "type": "VEC3"
    },
    {
      "bufferView": 3,
      "componentType": 5126,
      "count": 10867,
      "max": [
        1.0,
        1.0,
        1.0,
        1.0
      ],
      "min": [
        -1.0,
        -1.0,
        -1.0,
        -1.0
      ],
      "type": "VEC4"
    },
    {
      "bufferView": 1,
      "componentType": 5126,
      "count": 10867,
      "max": [
        0.9882209897041321,
        0.9827650189399719
      ],
      "min": [
        0.012045999988913536,
        0.004794000182300806
      ],
      "type": "VEC2"
    },
    {
      "bufferView": 0,
      "componentType": 5125,
      "count": 39618,
      "type": "SCALAR"
    },
    {
      "bufferView": 2,
      "byteOffset": 260808,
      "componentType": 5126,
      "count": 1280,
      "max": [
        -54.57117462158203,
        108.68390655517578,
        138.38201904296875
      ],
      "min": [
        -109.57664489746094,
        -108.03619384765625,
        52.245887756347656
      ],
      "type": "VEC3"
    },
    {
      "bufferView": 2,
      "byteOffset": 276168,
      "componentType": 5126,
      "count": 1280,
      "max": [
        0.9997884631156921,
        1.0,
        0.9995386004447937
      ],
      "min": [
        -0.9999797344207764,
        -1.0,
        -0.9999902248382568
      ],
      "type": "VEC3"
    },
    {
      "bufferView": 3,
      "byteOffset": 173872,
      "componentType": 5126,
      "count": 1280,
      "max": [
        0.9998169541358948,
        1.0,
        1.0,
        1.0
      ],
      "min": [
        -0.9919568300247192,
        -1.0,
        -1.0,
        1.0
      ],
      "type": "VEC4"
    },
    {
      "bufferView": 1,
      "byteOffset": 86936,
      "componentType": 5126,
      "count": 1280,
      "max": [
        0.994592010974884,
        0.9996749758720398
      ],
      "min": [
        0.00032500000088475645,
        0.0009749999735504389
      ],
      "type": "VEC2"
    },
    {
      "bufferView": 0,
      "byteOffset": 158472,
      "componentType": 5125,
      "count": 4494,
      "type": "SCALAR"
    },
    {
      "bufferView": 2,
      "byteOffset": 291528,
      "componentType": 5126,
      "count": 1268,
      "max": [
        188.26400756835938,
        106.03026580810547,
        190.73086547851563
      ],
      "min": [
        -151.70663452148438,
        -103.92819213867188,
        8.547744750976563
      ],
      "type": "VEC3"
    },
    {
      "bufferView": 2,
      "byteOffset": 306744,
      "componentType": 5126,
      "count": 1268,
      "max": [
        1.0,
        1.0,
        1.0
      ],
      "min": [
        -1.0,
        -1.0,
        -1.0
      ],
      "type": "VEC3"
    },
    {
      "bufferView": 3,
      "byteOffset": 194352,
      "componentType": 5126,
      "count": 1268,
      "max": [
        1.0,
        1.0,
        1.0,
        1.0
      ],
      "min": [
        -1.0,
        -1.0,
        -1.0,
        1.0
      ],
      "type": "VEC4"
    },
    {
      "bufferView": 1,
      "byteOffset": 97176,
      "componentType": 5126,
      "count": 1268,
      "max": [
        0.9990249872207642,
        0.9996740221977234
      ],
      "min": [
        0.0003260000084992498,
        0.0012309999438002706
      ],
      "type": "VEC2"
    },
    {
      "bufferView": 0,
      "byteOffset": 176448,
      "componentType": 5125,
      "count": 4476,
      "type": "SCALAR"
    },
    {
      "bufferView": 2,
      "byteOffset": 321960,
      "componentType": 5126,
      "count": 17,
      "max": [
        -72.11544799804688,
        18.464672088623047,
        109.97833251953125
      ],
      "min": [
        -78.8903579711914,
        -25.895328521728516,
        66.13873291015625
      ],
      "type": "VEC3"
    },
    {
      "bufferView": 2,
      "byteOffset": 322164,
      "componentType": 5126,
      "count": 17,
      "max": [
        -0.9797413349151611,
        0.04828698933124542,
        -0.10482803732156754
      ],
      "min": [
        -0.994490385055542,
        -0.04828698933124542,
        -0.20026707649230957
      ],
      "type": "VEC3"
    },
    {
      "bufferView": 1,
      "byteOffset": 107320,
      "componentType": 5126,
      "count": 17,
      "max": [
        0.9725559949874878,
        0.5630220174789429
      ],
      "min": [
        0.8289250135421753,
        0.4193899929523468
      ],
      "type": "VEC2"
    },
    {
      "bufferView": 0,
      "byteOffset": 194352,
      "componentType": 5125,
      "count": 48,
      "type": "SCALAR"
    }
  ],
  "asset": {
    "extras": {
      "author": "Fredrik (https://sketchfab.com/kird3rf)",
      "license": "CC-BY-4.0 (http://creativecommons.org/licenses/by/4.0/)",
      "source": "https://sketchfab.com/3d-models/vintage-polaroid-camera-5aa71a3db5b84906a344c71f7620da3a",
      "title": "Vintage Polaroid Camera"
    },
    "generator": "Sketchfab-12.68.0",
    "version": "2.0"
  },
  "bufferViews": [
    {
      "buffer": 0,
      "byteLength": 194544,
      "name": "floatBufferViews",
      "target": 34963
    },
    {
      "buffer": 0,
      "byteLength": 107456,
      "byteOffset": 194544,
      "byteStride": 8,
      "name": "floatBufferViews",
      "target": 34962
    },
    {
      "buffer": 0,
      "byteLength": 322368,
      "byteOffset": 302000,
      "byteStride": 12,
      "name": "floatBufferViews",
      "target": 34962
    },
    {
      "buffer": 0,
      "byteLength": 214640,
      "byteOffset": 624368,
      "byteStride": 16,
      "name": "floatBufferViews",
      "target": 34962
    }
  ],
  "buffers": [
    {
      "byteLength": 839008,
      "uri": "scene.bin"
    }
  ],
  "images": [
    {
      "uri": "textures/Polaroid_baseColor.jpeg"
    },
    {
      "uri": "textures/Polaroid_metallicRoughness.png"
    },
    {
      "uri": "textures/Polaroid_normal.png"
    },
    {
      "uri": "textures/Polaroid_CH_baseColor.jpeg"
    },
    {
      "uri": "textures/Polaroid_CH_metallicRoughness.png"
    },
    {
      "uri": "textures/Polaroid_CH_normal.png"
    },
    {
      "uri": "textures/Polaroid_inside_baseColor.jpeg"
    },
    {
      "uri": "textures/Polaroid_inside_metallicRoughness.png"
    },
    {
      "uri": "textures/Polaroid_inside_normal.png"
    }
  ],
  "materials": [
    {
      "doubleSided": true,
      "name": "Polaroid",
      "normalTexture": {
        "index": 2
      },
      "occlusionTexture": {
        "index": 1
      },
      "pbrMetallicRoughness": {
        "baseColorTexture": {
          "index": 0
        },
        "metallicRoughnessTexture": {
          "index": 1
        }
      }
    },
    {
      "doubleSided": true,
      "name": "Polaroid_CH",
      "normalTexture": {
        "index": 5
      },
      "occlusionTexture": {
        "index": 4
      },
      "pbrMetallicRoughness": {
        "baseColorTexture": {
          "index": 3
        },
        "metallicRoughnessTexture": {
          "index": 4
        }
      }
    },
    {
      "doubleSided": true,
      "name": "Polaroid_inside",
      "normalTexture": {
        "index": 8
      },
      "occlusionTexture": {
        "index": 7
      },
      "pbrMetallicRoughness": {
        "baseColorTexture": {
          "index": 6
        },
        "metallicRoughnessTexture": {
          "index": 7
        }
      }
    },
    {
      "doubleSided": true,
      "name": "RS_Material",
      "pbrMetallicRoughness": {
        "baseColorFactor": [
          0.07405692517734196,
          0.07405692517734196,
          0.07405692517734196,
          1.0
        ],
        "roughnessFactor": 0.6
      }
    }
  ],
  "meshes": [
    {
      "name": "Object_0",
      "primitives": [
        {
          "attributes": {
            "NORMAL": 1,
            "POSITION": 0,
            "TANGENT": 2,
            "TEXCOORD_0": 3
          },
          "indices": 4,
          "material": 0,
          "mode": 4
        }
      ]
    },
    {
      "name": "Object_1",
      "primitives": [
        {
          "attributes": {
            "NORMAL": 6,
            "POSITION": 5,
            "TANGENT": 7,
            "TEXCOORD_0": 8
          },
          "indices": 9,
          "material": 1,
          "mode": 4
        }
      ]
    },
    {
      "name": "Object_2",
      "primitives": [
        {
          "attributes": {
            "NORMAL": 11,
            "POSITION": 10,
            "TANGENT": 12,
            "TEXCOORD_0": 13
          },
          "indices": 14,
          "material": 2,
          "mode": 4
        }
      ]
    },
    {
      "name": "Object_3",
      "primitives": [
        {
          "attributes": {
            "NORMAL": 16,
            "POSITION": 15,
            "TEXCOORD_0": 17
          },
          "indices": 18,
          "material": 3,
          "mode": 4
        }
      ]
    }
  ],
  "nodes": [
    {
      "children": [
        1
      ],
      "matrix": [
        0.990588366985321,
        0.07882038503885266,
        0.11190181225538255,
        0.0,
        0.09291443973779678,
        0.21309393644332908,
        -0.9726036787033081,
        0.0,
        -0.10050659626722336,
        0.9738471508026123,
        0.20376482605934165,
        0.0,
        10.424357414245605,
        -19.275703430175767,
        -61.9144515991211,
        1.0
      ],
      "name": "Sketchfab_model"
    },
    {
      "children": [
        2,
        3,
        4,
        5
      ],
      "name": "Modelv2.obj.cleaner.materialmerger.gles"
    },
    {
      "mesh": 0,
      "name": "Object_2"
    },
    {
      "mesh": 1,
      "name": "Object_3"
    },
    {
      "mesh": 2,
      "name": "Object_4"
    },
    {
      "mesh": 3,
      "name": "Object_5"
    }
  ],
  "samplers": [
    {
      "magFilter": 9729,
      "minFilter": 9987,
      "wrapS": 10497,
      "wrapT": 10497
    }
  ],
  "scene": 0,
  "scenes": [
    {
      "name": "Sketchfab_Scene",
      "nodes": [
        0
      ]
    }
  ],
  "textures": [
    {
      "sampler": 0,
      "source": 0
    },
    {
      "sampler": 0,
      "source": 1
    },
    {
      "sampler": 0,
      "source": 2
    },
    {
      "sampler": 0,
      "source": 3
    },
    {
      "sampler": 0,
      "source": 4
    },
    {
      "sampler": 0,
      "source": 5
    },
    {
      "sampler": 0,
      "source": 6
    },
    {
      "sampler": 0,
      "source": 7
    },
    {
      "sampler": 0,
      "source": 8
    }
  ]
}
