<svg xmlns="http://www.w3.org/2000/svg" width="500" viewBox="0 0 375 375" height="500" version="1.0">
  <defs>
    <clipPath id="a">
      <path d="M118.129 118.3h138.75v138.75h-138.75Zm0 0"/>
    </clipPath>
    <clipPath id="b">
      <path d="M47.977 47.977h279v279h-279Zm0 0"/>
    </clipPath>
  </defs>
  <g clip-path="url(#a)">
    <path fill="#fff" d="M253.95 211.09a2.634 2.634 0 0 1-2.63-2.637V127.57l-44.644 44.754a2.626 2.626 0 0 1-3.723 0 2.645 2.645 0 0 1 0-3.726l49.137-49.262a2.629 2.629 0 0 1 2.867-.57 2.642 2.642 0 0 1 1.621 2.437v87.25a2.634 2.634 0 0 1-2.629 2.637Zm-132.876 45.96a2.635 2.635 0 0 1-2.633-2.636v-91.926a2.63 2.63 0 0 1 4.492-1.867l45.848 45.965a2.643 2.643 0 0 1 0 3.73 2.626 2.626 0 0 1-3.722 0l-41.356-41.464v85.562a2.634 2.634 0 0 1-2.629 2.637Zm132.875 0a2.627 2.627 0 0 1-1.86-.769L119.216 123.066a2.643 2.643 0 0 1 0-3.73 2.629 2.629 0 0 1 3.719 0L255.809 252.55a2.643 2.643 0 0 1 0 3.73 2.634 2.634 0 0 1-1.86.77"/>
  </g>
  <g clip-path="url(#b)">
    <path fill="#fff" d="M187.477 326.977c-77.067 0-139.5-62.86-139.5-139.5 0-76.637 62.433-139.5 139.5-139.5 77.07 0 139.5 62.433 139.5 139.5 0 77.07-62.86 139.5-139.5 139.5Zm0-270.387c-72.332 0-130.887 58.555-130.887 130.887 0 72.335 58.555 130.89 130.887 130.89 72.335 0 130.89-58.555 130.89-130.89 0-72.332-58.988-130.887-130.89-130.887Zm0 0"/>
  </g>
</svg>
